<svg version="1.1" preserveAspectRatio="none" xmlns="http://www.w3.org/2000/svg" width="500" height="500" viewBox="0 0 500 500"><rect width="100%" height="100%" fill="#FFFFFF" fill-opacity="1"/><svg viewBox="153.7487 667.7073 311.1543 315.5771" width="328.3330187773447" height="333" x="85.8335px" y="83.5px" xmlns="http://www.w3.org/2000/svg" xmlns:xlink="http://www.w3.org/1999/xlink" preserveAspectRatio="none"><defs></defs><style>.companyName {fill:#1C1C1C;fill-opacity:1;}.icon1 {fill:#1C1C1C;fill-opacity:1;}.icon2 {fill:#BAAE57;fill-opacity:1;}.icon3 {fill:#E192BB;fill-opacity:1;}.icon3-str {stroke:#E192BB;stroke-opacity:1;}</style><g opacity="1" transform="rotate(0 153.7487 863.2844)">
<svg width="311.1543" height="120" x="153.7487" y="863.2844" version="1.1" preserveAspectRatio="none" viewBox="2.4 -22.8 60.675599999999996 23.4">
  <g transform="matrix(1 0 0 1 0 0)" class="companyName"><path id="id-D6z1nYkh3" d="M3.20 0L3.20 0L2.40 0L2.40-9.32L3.20-9.32Q3.20-5.56 5.90-2.92Q8.60-0.28 12.48-0.28L12.48-0.28Q14.08-0.28 15.06-1.22Q16.04-2.16 16.04-3.72L16.04-3.72Q16.04-5.48 13.76-6.72L13.76-6.72Q12.52-7.36 9.48-8.74Q6.44-10.12 5.20-11.08L5.20-11.08Q2.72-13 3.02-16.16Q3.32-19.32 5.40-21.06Q7.48-22.80 10.10-22.80Q12.72-22.80 14.82-22.10Q16.92-21.40 17.20-21.40L17.20-21.40Q18-21.40 18-22.80L18-22.80L18.80-22.80L18.80-15.48L18-15.48Q18-18.36 15.88-20.18Q13.76-22 10.44-22L10.44-22Q8.96-22 8.12-21.14Q7.28-20.28 7.28-19.24Q7.28-18.20 7.56-17.64Q7.84-17.08 8.54-16.62Q9.24-16.16 9.76-15.88Q10.28-15.60 11.42-15.12Q12.56-14.64 13-14.44L13-14.44Q15.20-13.44 15.60-13.26Q16-13.08 16.76-12.68Q17.52-12.28 17.90-11.96Q18.28-11.64 18.88-11.16Q19.48-10.68 19.76-10.18Q20.04-9.68 20.32-9.04L20.32-9.04Q20.88-7.76 20.72-6.04L20.72-6.04Q20.40-2.80 18.30-1.10Q16.20 0.60 12.64 0.60L12.64 0.60Q9.44 0.60 6.28-1.04L6.28-1.04Q5.20-1.60 4.68-1.60L4.68-1.60Q3.20-1.60 3.20 0Z M29.68 0L29.68 0Q26.52 0 24.62-1.44Q22.72-2.88 22.72-5.60L22.72-5.60Q22.72-7.08 23.66-8.18Q24.60-9.28 25.92-9.28Q27.24-9.28 28.02-8.46Q28.80-7.64 28.80-6.40L28.80-6.40Q28.80-4.44 26.72-3.80L26.72-3.80Q26.48-3.72 26.06-3.62Q25.64-3.52 25.44-3.44L25.44-3.44Q24.92-3.32 24.92-2.68Q24.92-2.04 25.98-1.48Q27.04-0.92 28.36-0.92L28.36-0.92Q33.12-0.92 33.12-7.88L33.12-7.88L33.12-21.60L31.12-21.60L31.12-22.40L41.12-22.40L41.12-21.60L39.12-21.60L39.12-8.24Q39.12-4.36 36.76-2.18Q34.40 0 29.68 0Z M45.52 0L45.52 0L44.72 0L44.72-9.32L45.52-9.32Q45.52-5.56 48.22-2.92Q50.92-0.28 54.80-0.28L54.80-0.28Q56.40-0.28 57.38-1.22Q58.36-2.16 58.36-3.72L58.36-3.72Q58.36-5.48 56.08-6.72L56.08-6.72Q54.84-7.36 51.80-8.74Q48.76-10.12 47.52-11.08L47.52-11.08Q45.04-13 45.34-16.16Q45.64-19.32 47.72-21.06Q49.80-22.80 52.42-22.80Q55.04-22.80 57.14-22.10Q59.24-21.40 59.52-21.40L59.52-21.40Q60.32-21.40 60.32-22.80L60.32-22.80L61.12-22.80L61.12-15.48L60.32-15.48Q60.32-18.36 58.20-20.18Q56.08-22 52.76-22L52.76-22Q51.28-22 50.44-21.14Q49.60-20.28 49.60-19.24Q49.60-18.20 49.88-17.64Q50.16-17.08 50.86-16.62Q51.56-16.16 52.08-15.88Q52.60-15.60 53.74-15.12Q54.88-14.64 55.32-14.44L55.32-14.44Q57.52-13.44 57.92-13.26Q58.32-13.08 59.08-12.68Q59.84-12.28 60.22-11.96Q60.60-11.64 61.20-11.16Q61.80-10.68 62.08-10.18Q62.36-9.68 62.64-9.04L62.64-9.04Q63.20-7.76 63.04-6.04L63.04-6.04Q62.72-2.80 60.62-1.10Q58.52 0.60 54.96 0.60L54.96 0.60Q51.76 0.60 48.60-1.04L48.60-1.04Q47.52-1.60 47-1.60L47-1.60Q45.52-1.60 45.52 0Z"/></g>
</svg>
</g><g opacity="1" transform="rotate(0 231.5373 667.7073)">
<svg width="155.5771" height="155.5771" x="231.5373" y="667.7073" version="1.1" preserveAspectRatio="none" viewBox="0.5 0.5 47.099998474121094 47.099998474121094">
  <g transform="matrix(1 0 0 1 0 0)" class="icon1"><g><path d="M45.5,0.5H2.5c-1.1,0-2,0.9-2,2v10.1h47V2.5C47.5,1.4,46.6,0.5,45.5,0.5z M9.1,8.5L9.1,8.5c-1.1,0-2-0.9-2-2s0.9-2,2-2   s2,0.9,2,2S10.2,8.5,9.1,8.5z M18.7,8.5L18.7,8.5c-1.1,0-2-0.9-2-2s0.9-2,2-2s2,0.9,2,2S19.7,8.5,18.7,8.5z"></path><path d="M0.5,16.5v29.1c0,1.1,0.9,2,2,2h43.1c1.1,0,2-0.9,2-2V16.5H0.5z M19.6,28.5l-8.6,3.5l8.6,3.6v2L8.7,33v-1.9l10.9-4.6V28.5z    M22.4,40.5h-1.6l4.8-17h1.6L22.4,40.5z M39.3,33l-10.9,4.6v-2l8.6-3.6l-8.6-3.5v-2l10.9,4.6V33z"></path></g></g>
</svg>
</g></svg></svg>